<?xml version="1.0" standalone="no"?>
<!DOCTYPE svg PUBLIC "-//W3C//DTD SVG 20010904//EN"
 "http://www.w3.org/TR/2001/REC-SVG-20010904/DTD/svg10.dtd">
<svg version="1.0" xmlns="http://www.w3.org/2000/svg"
 width="401.000000pt" height="401.000000pt" viewBox="0 0 401.000000 401.000000"
 preserveAspectRatio="xMidYMid meet">
<metadata>
Created by potrace 1.14, written by Peter Selinger 2001-2017
</metadata>
<g transform="translate(0.000000,401.000000) scale(0.100000,-0.100000)"
fill="#000000" stroke="none">
<path d="M10 2000 l0 -2000 2000 0 2000 0 0 2000 0 2000 -2000 0 -2000 0 0
-2000z m388 718 c9 -9 12 -75 12 -235 l0 -223 90 0 c89 0 90 0 90 25 0 22 4
25 35 25 l35 0 0 -50 c0 -38 -4 -52 -19 -60 -11 -5 -78 -10 -150 -10 -104 0
-133 3 -145 16 -14 13 -16 49 -16 234 l0 219 -22 3 c-18 2 -24 11 -26 36 l-3
32 53 0 c30 0 59 -5 66 -12z m557 -150 c49 -22 59 -53 63 -185 4 -116 5 -122
26 -125 16 -2 21 -10 21 -33 0 -27 -3 -30 -37 -33 -45 -4 -78 12 -78 37 0 16
-4 15 -30 -9 -40 -37 -94 -46 -148 -25 -22 9 -48 27 -56 40 -18 28 -21 97 -6
126 18 32 89 62 163 67 66 5 67 5 67 33 0 33 -40 69 -77 69 -32 0 -63 -17 -63
-35 0 -10 -11 -15 -35 -15 -32 0 -35 2 -35 29 0 35 21 59 58 67 15 3 32 7 37
10 16 6 104 -6 130 -18z m458 11 c60 -16 71 -44 77 -188 5 -121 6 -126 28
-129 18 -3 22 -10 22 -38 0 -33 -1 -34 -41 -34 -77 0 -79 4 -79 151 0 125 -1
131 -25 154 -29 30 -58 31 -104 7 -57 -31 -71 -70 -71 -199 l0 -113 -35 0 -34
0 -3 158 c-3 154 -3 157 -25 160 -19 3 -23 10 -23 38 0 34 1 34 44 34 49 0 76
-19 76 -51 0 -18 2 -18 23 6 21 24 84 54 117 55 8 0 32 -5 53 -11z m433 -18
c30 -18 31 -18 42 0 9 14 24 19 57 19 45 0 45 0 45 -35 0 -28 -4 -35 -19 -35
-18 0 -19 -11 -23 -177 -4 -195 -11 -222 -67 -262 -44 -32 -120 -45 -183 -32
-75 16 -82 22 -67 55 10 21 17 26 33 21 47 -15 117 -17 146 -5 36 15 60 55 60
99 l0 31 -32 -20 c-40 -24 -117 -26 -158 -5 -53 27 -84 80 -88 151 -6 85 3
124 36 162 51 61 146 75 218 33z m923 4 c50 -25 61 -59 61 -190 l0 -115 25 0
c22 0 25 -4 25 -35 0 -35 0 -35 -44 -35 -43 0 -76 18 -76 42 0 7 -11 2 -24
-11 -80 -76 -226 -25 -226 78 0 76 60 120 177 128 l75 6 -6 30 c-3 17 -11 36
-17 43 -27 32 -129 24 -129 -11 0 -11 -10 -15 -35 -15 -32 0 -35 3 -35 28 0
53 62 85 152 77 26 -2 61 -11 77 -20z m413 -5 c32 -24 38 -25 38 -6 0 18 22
26 71 26 38 0 39 -1 39 -34 0 -28 -4 -35 -22 -38 -23 -3 -23 -5 -28 -188 -6
-209 -10 -224 -84 -262 -48 -25 -141 -29 -198 -9 -40 13 -46 26 -25 55 12 17
18 17 52 6 20 -7 58 -10 83 -7 60 7 102 50 102 103 l0 36 -34 -21 c-74 -46
-183 -16 -227 63 -29 51 -32 163 -7 211 21 40 59 74 94 85 42 13 115 3 146
-20z m472 2 c46 -27 69 -66 74 -127 l4 -55 -135 0 c-76 0 -138 -4 -142 -10 -3
-5 1 -25 9 -44 29 -71 126 -98 195 -55 34 20 35 20 48 3 20 -28 12 -45 -31
-67 -49 -26 -147 -28 -191 -5 -34 19 -77 62 -96 98 -20 40 -16 138 9 187 47
92 167 127 256 75z m-1520 2 c13 -12 16 -40 16 -140 0 -69 4 -134 10 -144 24
-45 121 -28 157 26 14 22 19 55 23 149 l5 120 35 0 35 0 3 -157 c2 -150 4
-158 22 -158 16 0 20 -7 20 -35 0 -34 -1 -35 -39 -35 -58 0 -71 8 -71 42 l0
30 -35 -31 c-50 -44 -102 -57 -156 -40 -71 23 -83 50 -88 194 -3 118 -4 124
-24 127 -22 3 -33 28 -23 54 8 20 90 19 110 -2z m-506 -756 c8 -8 12 -56 12
-151 l0 -139 32 6 c18 3 34 10 38 14 87 127 92 132 131 132 22 0 39 -3 39 -7
0 -5 -27 -44 -59 -88 l-59 -80 39 -70 c25 -46 47 -73 64 -79 19 -7 25 -17 25
-38 0 -26 -3 -28 -43 -28 -51 0 -62 10 -102 90 -35 71 -53 90 -82 90 -22 0
-23 -2 -23 -90 l0 -90 -40 0 -40 0 0 235 c0 228 -1 235 -20 235 -16 0 -20 7
-20 35 l0 35 48 0 c26 0 53 -5 60 -12z m412 -28 c0 -39 -1 -40 -35 -40 -34 0
-35 1 -35 40 0 39 1 40 35 40 34 0 35 -1 35 -40z m190 30 c12 -8 16 -49 20
-237 5 -227 5 -228 28 -231 17 -3 22 -10 22 -33 0 -29 -1 -29 -55 -29 -43 0
-56 4 -65 19 -6 12 -10 106 -10 235 0 209 -1 216 -20 216 -16 0 -20 7 -20 35
0 35 1 35 43 35 23 0 49 -5 57 -10z m209 -3 c7 -9 12 -93 13 -238 3 -224 3
-224 26 -227 17 -3 22 -10 22 -33 0 -28 -2 -29 -48 -29 -26 0 -53 5 -60 12 -9
9 -12 75 -12 235 l0 223 -25 0 c-22 0 -25 4 -25 35 l0 35 49 0 c28 0 53 -6 60
-13z m-1020 -152 c31 -15 41 -33 41 -71 0 -20 -5 -24 -30 -24 -23 0 -33 6 -40
24 -10 27 -41 36 -86 24 -70 -18 -43 -68 58 -108 80 -31 108 -61 108 -117 0
-37 -5 -50 -30 -73 -57 -54 -165 -52 -234 3 -28 23 -28 24 -12 49 l17 27 36
-24 c49 -34 97 -41 129 -20 46 30 29 55 -65 100 -46 22 -92 51 -102 64 -35 42
-20 113 29 144 34 21 142 23 181 2z m602 5 c17 -10 19 -23 19 -160 l0 -150 25
-6 c19 -5 25 -13 25 -35 0 -28 -2 -29 -48 -29 -26 0 -53 5 -60 12 -8 8 -12 58
-12 160 l0 148 -25 0 c-21 0 -25 5 -25 28 0 16 3 32 7 35 10 11 72 8 94 -3z
m758 -5 c31 -15 41 -33 41 -71 0 -20 -5 -24 -30 -24 -23 0 -33 6 -40 25 -14
36 -80 38 -115 4 -19 -19 -19 -19 5 -43 14 -13 51 -33 82 -46 80 -31 108 -61
108 -117 0 -37 -5 -50 -30 -73 -55 -52 -168 -50 -235 4 -27 22 -27 23 -11 48
l17 27 36 -24 c49 -34 97 -41 129 -20 46 30 29 55 -65 100 -46 22 -92 51 -102
64 -35 42 -20 113 29 144 34 21 142 23 181 2z"/>
<path d="M836 2370 c-82 -26 -88 -100 -9 -124 46 -14 105 39 114 104 4 23 1
25 -36 27 -22 1 -53 -2 -69 -7z"/>
<path d="M1699 2492 c-57 -51 -51 -154 13 -207 34 -28 66 -32 107 -10 39 20
54 63 49 136 -4 52 -9 66 -32 86 -39 33 -96 31 -137 -5z"/>
<path d="M2650 2370 c-35 -8 -70 -41 -70 -65 0 -7 8 -23 19 -36 24 -29 81 -31
112 -3 23 20 49 73 49 99 0 17 -49 19 -110 5z"/>
<path d="M3047 2509 c-67 -39 -60 -196 12 -233 44 -23 77 -20 113 13 27 24 32
36 36 88 5 65 -13 114 -47 133 -25 13 -91 13 -114 -1z"/>
<path d="M3524 2520 c-25 -10 -64 -57 -64 -77 0 -11 19 -13 98 -11 91 3 97 4
94 23 -4 28 -58 75 -85 74 -12 0 -32 -4 -43 -9z"/>
</g>
</svg>
