<svg xmlns="http://www.w3.org/2000/svg" width="20" height="20" viewBox="0 0 20 20"><symbol viewBox="0 -12 10 12"><g><path fill="#fff" d="M5-5.134c-2.031 0-5-1.879-5-6.033v-.833h10v.832c0 4.153-2.969 6.034-5 6.034zM7.5-4l-.5-1h-4l-.5 1h-.5v2.312l.5.469 1.5 1.219h2l1.5-1.219.5-.469v-2.312z"/></g></symbol><g><path fill="#fff" d="M10.361 14.139c-.362 0-.707-.157-.944-.43l-4.924-5.67c-.452-.522-.396-1.311.125-1.764.521-.453 1.311-.397 1.764.124l3.98 4.583 3.971-4.574c.452-.521 1.242-.577 1.763-.124.521.453.577 1.242.125 1.763l-4.915 5.661c-.238.274-.582.431-.945.431z"/></g></svg>