<?xml version="1.0" standalone="no"?>
<!DOCTYPE svg PUBLIC "-//W3C//DTD SVG 20010904//EN"
 "http://www.w3.org/TR/2001/REC-SVG-20010904/DTD/svg10.dtd">
<svg version="1.0" xmlns="http://www.w3.org/2000/svg"
 width="401.000000pt" height="401.000000pt" viewBox="0 0 401.000000 401.000000"
 preserveAspectRatio="xMidYMid meet">
<metadata>
Created by potrace 1.14, written by Peter Selinger 2001-2017
</metadata>
<g transform="translate(0.000000,401.000000) scale(0.100000,-0.100000)"
fill="#000000" stroke="none">
<path d="M0 2005 l0 -2005 2005 0 2005 0 0 2005 0 2005 -2005 0 -2005 0 0
-2005z m847 953 c29 -10 61 -27 73 -36 l20 -17 -25 -32 -25 -32 -52 27 c-60
31 -156 41 -214 22 -58 -19 -130 -92 -150 -152 -25 -77 -16 -184 22 -245 77
-124 261 -151 374 -56 25 21 30 32 30 69 0 42 -1 44 -30 44 -28 0 -30 2 -30
40 l0 40 58 0 c32 0 63 -5 70 -12 8 -8 12 -59 12 -165 l0 -153 -40 0 c-39 0
-40 1 -40 35 l0 34 -37 -25 c-90 -61 -218 -69 -318 -20 -241 119 -243 499 -1
623 91 46 198 51 303 11z m1573 -33 l0 -45 -40 0 -40 0 0 45 0 45 40 0 40 0 0
-45z m-670 -75 l0 -70 55 0 55 0 0 -35 0 -35 -55 0 -55 0 0 -131 c0 -163 15
-198 88 -199 31 0 32 -2 32 -40 l0 -40 -42 0 c-64 0 -123 33 -147 84 -18 37
-21 61 -21 184 l0 142 -30 0 c-28 0 -30 3 -30 35 0 32 2 35 30 35 l30 0 0 70
0 70 45 0 45 0 0 -70z m332 3 l3 -68 58 -3 57 -3 0 -34 0 -35 -60 0 -60 0 0
-112 c0 -171 21 -218 97 -218 32 0 33 -1 33 -40 l0 -40 -43 0 c-59 0 -126 36
-149 80 -15 29 -18 59 -18 182 l0 148 -35 0 c-33 0 -35 2 -35 35 0 33 2 35 35
35 l35 0 0 70 0 70 40 0 39 0 3 -67z m-662 -83 c50 -26 87 -80 100 -150 18
-93 24 -90 -177 -90 l-175 0 6 -32 c22 -111 157 -164 264 -103 l42 24 16 -24
c22 -34 12 -52 -43 -78 -67 -30 -182 -30 -238 0 -88 47 -135 127 -135 228 0
102 50 187 135 226 56 26 154 25 205 -1z m1558 -13 c42 -40 52 -87 52 -241 l0
-136 30 0 c28 0 30 -2 30 -40 l0 -40 -57 0 c-32 0 -65 5 -73 10 -12 7 -16 44
-20 186 -5 170 -6 176 -29 195 -34 28 -107 26 -152 -5 -61 -42 -74 -81 -77
-243 l-3 -143 -45 0 -44 0 -2 203 -3 202 -27 3 c-25 3 -28 8 -28 38 l0 34 63
0 c73 0 87 -10 87 -60 l0 -35 26 33 c43 54 88 73 171 69 63 -2 76 -6 101 -30z
m483 11 c22 -12 39 -25 39 -30 0 -16 16 -7 25 15 9 19 19 22 73 25 l62 3 0
-35 c0 -30 -3 -35 -27 -38 l-28 -3 -5 -230 c-4 -189 -8 -235 -22 -260 -53 -96
-179 -137 -313 -100 -68 18 -73 25 -54 69 11 24 12 24 51 10 52 -18 129 -18
173 0 47 20 75 69 75 130 l0 49 -22 -21 c-65 -60 -196 -55 -266 11 -50 46 -67
95 -67 193 0 84 2 94 30 140 42 67 91 94 174 94 47 0 73 -6 102 -22z m-1052
-1 c6 -9 12 -83 13 -198 l3 -184 28 -3 c24 -3 27 -7 27 -43 l0 -39 -51 0 c-91
0 -89 -5 -89 203 0 194 -3 207 -47 207 -20 0 -23 5 -23 35 l0 35 64 0 c41 0
68 -5 75 -13z m1049 -959 c9 -9 12 -88 12 -295 l0 -283 30 -6 c26 -6 30 -11
30 -40 l0 -34 -58 0 c-63 0 -82 11 -82 48 0 24 0 24 -36 -8 -46 -40 -73 -50
-132 -50 -128 1 -207 96 -207 250 0 97 36 177 97 218 77 50 221 36 257 -25 8
-13 10 6 8 72 l-2 90 -27 3 c-25 3 -28 8 -28 38 l0 34 63 0 c36 0 68 -5 75
-12z m-2398 -113 l0 -65 60 0 60 0 0 -35 0 -35 -61 0 -61 0 4 -133 c4 -158 13
-180 83 -199 42 -11 45 -14 45 -46 l0 -34 -60 4 c-69 5 -106 27 -132 79 -15
28 -18 61 -18 182 l0 147 -35 0 c-33 0 -35 2 -35 35 0 33 2 35 35 35 l35 0 0
65 0 65 40 0 40 0 0 -65z m1230 0 l0 -65 60 0 60 0 0 -35 0 -35 -61 0 -61 0 4
-139 c3 -130 5 -141 27 -165 13 -14 40 -27 62 -31 37 -6 39 -9 39 -42 l0 -35
-60 4 c-68 5 -104 26 -135 79 -17 29 -21 56 -23 182 l-4 147 -29 0 c-26 0 -29
3 -29 35 0 33 2 35 35 35 l35 0 0 65 0 65 40 0 40 0 0 -65z m-1533 -66 c46
-17 73 -49 73 -86 0 -32 -1 -33 -40 -33 -33 0 -40 3 -40 20 0 45 -100 56 -147
16 -27 -24 -27 -26 -13 -52 11 -21 39 -38 105 -66 107 -45 145 -79 151 -134
18 -142 -200 -209 -330 -102 l-36 29 21 29 21 28 43 -30 c61 -43 131 -49 170
-16 23 20 27 30 21 52 -6 23 -24 35 -110 75 -121 57 -146 83 -146 150 0 57 20
87 74 112 46 21 139 25 183 8z m821 -10 c69 -34 82 -71 82 -247 l0 -142 30 -6
c26 -6 30 -11 30 -40 l0 -34 -51 0 c-67 0 -89 13 -89 51 l0 31 -27 -33 c-93
-110 -293 -55 -293 80 0 95 66 144 218 163 l92 12 0 33 c0 53 -37 83 -100 83
-61 0 -90 -13 -90 -40 0 -17 -7 -20 -40 -20 -38 0 -40 2 -40 29 0 47 10 62 54
82 59 27 166 26 224 -2z m512 -24 c0 -43 -1 -45 -29 -45 -41 0 -93 -39 -118
-90 -20 -39 -23 -59 -23 -177 l0 -133 -45 0 -45 0 0 193 c0 200 -3 217 -42
217 -14 0 -18 8 -18 35 l0 35 58 0 c32 0 63 -5 70 -12 7 -7 12 -32 13 -57 0
-40 2 -43 12 -27 29 47 72 87 101 95 61 18 66 15 66 -34z m717 30 c73 -31 112
-91 120 -187 l6 -58 -182 0 -181 0 6 -27 c17 -71 59 -115 124 -133 46 -12 93
-4 145 25 l41 23 17 -31 c18 -30 18 -31 -5 -49 -92 -70 -256 -61 -341 20 -88
83 -100 240 -25 343 56 77 185 112 275 74z"/>
<path d="M1282 2720 c-40 -9 -87 -52 -101 -91 l-10 -29 130 0 c124 0 129 1
129 21 0 67 -74 116 -148 99z"/>
<path d="M3313 2704 c-64 -32 -92 -146 -57 -234 22 -55 65 -84 125 -84 88 0
129 54 129 171 0 82 -23 127 -75 149 -44 18 -82 18 -122 -2z"/>
<path d="M3190 1553 c-86 -45 -116 -179 -60 -271 27 -44 64 -65 116 -65 85 0
134 63 134 173 0 134 -93 213 -190 163z"/>
<path d="M1404 1361 c-61 -28 -73 -82 -29 -126 65 -66 195 10 195 115 l0 30
-62 0 c-40 0 -78 -7 -104 -19z"/>
<path d="M2643 1550 c-32 -19 -63 -66 -63 -95 0 -13 19 -15 130 -15 141 0 141
0 120 55 -5 14 -22 37 -36 50 -34 32 -104 34 -151 5z"/>
</g>
</svg>
