<?xml version="1.0" standalone="no"?>
<!DOCTYPE svg PUBLIC "-//W3C//DTD SVG 20010904//EN"
 "http://www.w3.org/TR/2001/REC-SVG-20010904/DTD/svg10.dtd">
<svg version="1.0" xmlns="http://www.w3.org/2000/svg"
 width="401.000000pt" height="401.000000pt" viewBox="0 0 401.000000 401.000000"
 preserveAspectRatio="xMidYMid meet">
<metadata>
Created by potrace 1.14, written by Peter Selinger 2001-2017
</metadata>
<g transform="translate(0.000000,401.000000) scale(0.100000,-0.100000)"
fill="#000000" stroke="none">
<path d="M10 2000 l0 -2000 1995 0 1995 0 0 2000 0 2000 -1995 0 -1995 0 0
-2000z m875 1167 c69 -38 88 -67 89 -136 l1 -56 -57 -3 -58 -3 0 30 c0 53 -48
84 -132 84 -86 0 -137 -39 -138 -104 0 -57 31 -85 164 -150 140 -67 186 -102
215 -162 27 -55 28 -146 2 -202 -59 -131 -244 -182 -402 -112 -52 23 -129 80
-129 96 0 4 16 26 36 49 l36 42 36 -31 c51 -45 109 -69 170 -69 92 0 142 41
142 116 0 63 -31 92 -173 162 -149 74 -208 129 -225 208 -18 82 9 159 75 213
58 48 105 61 208 58 77 -2 97 -7 140 -30z m1924 6 c21 -18 21 -25 24 -373 l2
-355 38 -3 38 -3 -3 -52 -3 -52 -61 -3 c-77 -4 -112 10 -125 47 l-10 29 -27
-25 c-41 -38 -80 -55 -142 -60 -112 -10 -215 50 -263 155 -18 40 -21 65 -21
162 0 134 16 183 84 249 58 56 111 74 204 69 65 -3 81 -8 121 -36 l46 -32 -3
92 -3 93 -37 3 -38 3 0 55 0 54 79 0 c60 0 84 -4 100 -17z m-1541 -140 l3 -83
69 0 70 0 0 -50 0 -50 -70 0 -70 0 0 -168 c0 -136 3 -172 16 -190 20 -29 66
-52 104 -52 30 0 30 0 30 -55 l0 -55 -49 0 c-65 0 -129 24 -169 63 -50 49 -62
104 -62 294 l0 163 -40 0 -40 0 0 50 0 50 40 0 40 0 0 78 c0 43 3 82 7 86 4 4
32 6 63 4 l55 -3 3 -82z m392 -103 c19 -19 20 -33 20 -202 0 -101 5 -200 10
-220 14 -49 43 -68 103 -68 66 0 121 32 155 90 26 43 27 52 32 230 l5 185 62
3 63 3 2 -253 3 -253 38 -3 38 -3 -3 -52 -3 -52 -76 0 c-92 0 -119 17 -119 74
l0 36 -26 -33 c-75 -94 -248 -122 -336 -52 -54 42 -63 79 -68 285 l-5 190 -37
3 -38 3 0 55 0 54 80 0 c67 0 83 -3 100 -20z m1418 2 c17 -17 182 -409 182
-434 1 -7 36 84 80 202 52 143 87 221 101 233 17 13 36 17 78 15 l56 -3 0 -50
c0 -44 -3 -50 -24 -55 -22 -5 -40 -45 -156 -330 -113 -282 -136 -330 -171
-366 -46 -47 -113 -70 -171 -59 -47 8 -113 44 -113 61 0 13 39 84 46 84 2 0
18 -9 36 -20 40 -24 59 -25 99 -4 30 15 79 99 79 134 0 8 -47 123 -104 255
-88 201 -108 241 -128 245 -18 5 -24 13 -26 44 -5 60 1 66 63 66 39 0 60 -5
73 -18z m-1688 -1202 c19 -19 20 -33 20 -231 l0 -210 48 3 c51 3 35 -14 190
196 15 21 24 23 85 20 l68 -3 -100 -137 -100 -138 25 -37 c14 -21 37 -60 51
-88 45 -89 61 -105 99 -105 l35 0 -3 -52 -3 -53 -67 0 c-84 0 -95 9 -173 155
-31 58 -64 111 -73 118 -9 6 -31 12 -49 12 l-32 0 -3 -142 -3 -143 -60 0 -60
0 -3 373 -2 372 -35 0 -35 0 0 55 0 55 80 0 c67 0 83 -3 100 -20z m650 -45 l0
-65 -55 0 -55 0 0 65 0 65 55 0 55 0 0 -65z m306 51 c18 -14 19 -33 24 -373
l5 -358 38 -3 38 -3 -3 -52 -3 -52 -76 0 c-127 0 -118 -27 -121 389 l-3 351
-37 3 -38 3 0 55 0 54 78 0 c52 0 85 -5 98 -14z m322 -2 l22 -15 0 -344 c0
-189 3 -350 6 -359 4 -10 18 -16 41 -16 l34 0 -3 -52 -3 -53 -77 0 c-121 0
-112 -28 -118 388 l-5 352 -35 5 c-32 5 -35 8 -38 44 -5 62 -1 66 80 66 50 0
81 -5 96 -16z m-1645 -225 c21 -5 52 -23 69 -38 27 -24 32 -35 32 -77 l1 -49
-55 0 c-52 0 -55 1 -58 26 -4 32 -37 49 -93 49 -63 0 -99 -24 -99 -67 0 -34
34 -59 139 -100 151 -60 206 -127 187 -228 -9 -44 -47 -90 -100 -118 -33 -17
-58 -22 -126 -22 -72 0 -93 4 -141 27 -30 15 -66 39 -79 53 l-23 25 28 40 c15
22 31 40 35 40 4 0 15 -9 26 -21 52 -58 172 -82 227 -46 21 13 27 26 27 51 0
41 -18 54 -152 111 -101 43 -162 99 -174 160 -13 74 40 154 121 183 40 14 160
15 208 1z m2184 -12 c44 -23 66 -60 67 -110 l1 -42 -57 -3 c-56 -3 -58 -2 -58
22 0 34 -35 56 -88 56 -62 0 -102 -23 -102 -60 0 -40 26 -61 130 -104 119 -50
164 -83 185 -140 31 -80 -2 -160 -85 -206 -63 -35 -191 -36 -265 -2 -52 24
-105 68 -105 86 0 6 14 27 30 46 l29 35 28 -26 c97 -92 253 -85 253 10 0 31
-34 56 -121 91 -43 18 -98 45 -123 60 -125 80 -109 242 29 295 54 20 208 15
252 -8z m-1186 -6 c24 -19 24 -22 29 -253 l5 -233 38 -3 38 -3 -3 -52 -3 -52
-55 -3 c-30 -2 -72 2 -92 8 -52 15 -58 44 -58 293 l0 207 -35 0 -35 0 0 55 0
55 74 0 c58 0 79 -4 97 -19z"/>
<path d="M2459 2827 c-79 -52 -108 -204 -57 -304 29 -60 64 -85 125 -90 111
-11 183 71 183 207 0 83 -34 160 -82 190 -46 28 -124 27 -169 -3z"/>
</g>
</svg>
