<svg xmlns="http://www.w3.org/2000/svg" xmlns:xlink="http://www.w3.org/1999/xlink" viewBox="1762 3089.617 147.891 135.683">
  <defs>
    <style>
      .cls-1 {
        fill: #fff;
      }

      .cls-2 {
        filter: url(#Path_30);
      }
    </style>
    <filter id="Path_30" x="1762" y="3089.617" width="147.891" height="135.683" filterUnits="userSpaceOnUse">
      <feOffset input="SourceAlpha"/>
      <feGaussianBlur stdDeviation="6" result="blur"/>
      <feFlood flood-opacity="0.161"/>
      <feComposite operator="in" in2="blur"/>
      <feComposite in="SourceGraphic"/>
    </filter>
  </defs>
  <g class="cls-2" transform="matrix(1, 0, 0, 1, 0, 0)">
    <path id="Path_30-2" data-name="Path 30" class="cls-1" d="M110.5,44.664l-22.8-39.5A10.341,10.341,0,0,0,78.764,0H33.127a10.341,10.341,0,0,0-8.942,5.166l-22.8,39.5A10.3,10.3,0,0,0,1.39,55l22.8,39.521a10.341,10.341,0,0,0,8.942,5.166H78.764a10.341,10.341,0,0,0,8.942-5.166L110.5,55A10.3,10.3,0,0,0,110.5,44.664Z" transform="translate(1780 3107.62)"/>
  </g>
</svg>
