<?xml version="1.0" encoding="utf-8"?>
<!-- Generator: Adobe Illustrator 25.4.1, SVG Export Plug-In . SVG Version: 6.00 Build 0)  -->
<svg version="1.1" id="Layer_1" xmlns="http://www.w3.org/2000/svg" xmlns:xlink="http://www.w3.org/1999/xlink" x="0px" y="0px"
	 viewBox="0 0 190.2 43.6" style="enable-background:new 0 0 190.2 43.6;" xml:space="preserve">
<style type="text/css">
	.st0{fill:#FFFFFF;}
	.st1{fill:#E22A20;}
	.st2{fill:#E41E2A;}
</style>
<g id="Libary_logo">
	<g id="white">
		<g id="layer1">
			<g id="g5781">
				<g id="g5108">
					<g id="g5110">
						<path id="path5106" class="st0" d="M90.3,4.4h2.9V3.3H83v1.1h3V25h-3v1.1h10.2V25h-2.9V4.4z"/>
						<g id="g5116">
							<path id="path5118" class="st0" d="M108.9,26.1V25h-3.1V4.2c4.8-0.2,5.6,0.8,6.2,5.1h1l-0.4-6H94.5l-0.4,6h1.1
								c0.6-4.4,1.4-5.4,6.2-5.2V25h-3.1v1.1L108.9,26.1"/>
						</g>
						<g id="g5120">
							<path id="path5122" class="st0" d="M81,4.4V3.3h-8.4l-4.9,15.6L62.9,3.3h-8.4v1.1h3V25h-3.2c-1.5,0.2-2.8-0.8-3-2.3
								c0-0.2,0-0.5,0-0.7c0-5.6-1.2-7.6-6.5-8.4v-0.1c3.2-0.3,7.3-1.2,7.3-5c0-4.7-4.4-5.2-8.2-5.2h-11v1.1h2.9V25h-2.9v1.1h10.2
								V25h-2.9V14.1c1.8-0.1,3.5,0.3,5,1.2c0.9,0.8,1.4,3.1,1.4,5.9c0,3.5,1.8,4.8,5.2,4.8h9.9V25h-2.9V4.8h0.1l6.8,21.4h1.2
								l6.8-21.4h0.1V25h-2.9v1.1H81V25h-2.9V4.4H81z M40.2,13.1V4.4h3c3,0,4.2,0.8,4.2,4.6c0,3-1.3,4.1-4.3,4.1H40.2"/>
						</g>
						<g id="g5124">
							<path id="path5126" class="st1" d="M14.7,2h-3.4v2.7H5.6v5.8H1.4V19h4.3v5.8h5.7v2.8h3c7,0,13.2-5.7,13.2-12.7
								C27.5,7.7,21.8,2,14.7,2"/>
						</g>
						<g id="g5128">
							<path id="path5130" class="st0" d="M35.8,33c0-0.1-0.1-0.3-0.2-0.3c0,0,0,0-0.1,0H35v-1.1h1.3c0.6,0,0.8,0.2,0.8,0.8v4.9
								c0,1.2,1,2.1,2.1,2.1s2.1-1,2.1-2.1c0,0,0,0,0,0v-4.9c0-0.6,0.2-0.8,0.8-0.8h1.3v1.1h-0.5c-0.1,0-0.3,0.1-0.3,0.2
								c0,0,0,0,0,0.1v4.4c0.1,1.7-1.3,3.2-3,3.3c-0.1,0-0.2,0-0.4,0c-1.8,0.1-3.3-1.2-3.4-2.9c0-0.1,0-0.2,0-0.4L35.8,33z"/>
						</g>
						<g id="g5132">
							<path id="path5134" class="st0" d="M44.3,39.5h0.5c0.1,0,0.3-0.1,0.3-0.2c0,0,0,0,0-0.1v-7.6h1.2l4,5.7
								c0.3,0.5,0.8,1.2,0.8,1.2l0,0c-0.1-0.4-0.1-0.8-0.1-1.2v-4.8c0-0.6,0.2-0.8,0.8-0.8H53v1.1h-0.5c-0.1,0-0.3,0.1-0.3,0.2
								c0,0,0,0,0,0.1v7.6H51l-4-5.7c-0.3-0.5-0.7-1.2-0.7-1.2l0,0c0,0,0.1,0.7,0.1,1.2v4.8c0,0.6-0.2,0.8-0.8,0.8h-1.3V39.5z"/>
						</g>
						<g id="g5136">
							<path id="path5138" class="st0" d="M54.4,39.5h0.9v-6.8h-0.9v-1.1h3v1.1h-0.9v6.8h0.9v1.1h-3V39.5z"/>
						</g>
						<g id="g5140">
							<path id="path5142" class="st0" d="M58.7,33c0-0.2-0.2-0.3-0.4-0.3h-0.2v-1.1h0.7c0.6,0,0.8,0.1,1,0.7l2,5.5
								c0.2,0.5,0.3,1.2,0.3,1.2l0,0c0.1-0.4,0.2-0.8,0.3-1.2l2-5.5c0.2-0.6,0.4-0.7,1.1-0.7h0.7v1.1h-0.2c-0.2,0-0.3,0-0.4,0.3
								l-2.8,7.6h-1.3L58.7,33z"/>
						</g>
						<g id="g5144">
							<path id="path5146" class="st0" d="M67.8,32.7H67v-1.1h5.3c0.6,0,0.8,0.2,0.8,0.8v1.1h-1.2V33c0-0.1-0.1-0.3-0.2-0.3
								c0,0,0,0-0.1,0h-2.5v2.8h3.1v1.1h-3.1v2.6c0,0.1,0.1,0.3,0.2,0.3c0,0,0,0,0.1,0H72c0.1,0,0.3-0.1,0.3-0.2c0,0,0,0,0,0v-0.6
								h1.1v1.1c0,0.6-0.2,0.8-0.8,0.8h-4c-0.6,0-0.8-0.2-0.8-0.8L67.8,32.7z"/>
						</g>
						<g id="g5148">
							<path id="path5150" class="st0" d="M78.1,35.9c0.8,0,1.5-0.6,1.5-1.4c0-0.1,0-0.2,0-0.3c0.1-0.8-0.5-1.5-1.3-1.6
								c-0.1,0-0.2,0-0.3,0h-1.7v3.2H78.1z M75.2,32.7h-0.8v-1.1h3.9c1.4-0.1,2.6,0.9,2.7,2.3c0,0.1,0,0.2,0,0.3
								c0.1,1.1-0.6,2-1.6,2.4l0,0c0.2,0.1,0.3,0.2,0.4,0.4l1.1,2.1c0.1,0.3,0.3,0.3,0.6,0.3h0.2v1.1H81c-0.7,0-1-0.1-1.2-0.7
								l-1.2-2.4c-0.2-0.4-0.4-0.5-0.9-0.5h-1.2v3.6h-1.3V32.7z"/>
						</g>
						<g id="g5152">
							<path id="path5154" class="st0" d="M83.2,38.5c0.6,0.6,1.4,1,2.2,1.1c0.8,0.1,1.5-0.4,1.6-1.2c0,0,0-0.1,0-0.1
								c0-1.9-4.3-1.6-4.3-4.4c0.1-1.4,1.3-2.5,2.7-2.4c0,0,0.1,0,0.1,0c1,0,2.6,0.4,2.6,1.6v0.7h-1.2v-0.4c0-0.5-0.7-0.8-1.4-0.8
								c-1,0-1.6,0.5-1.6,1.2c0,1.8,4.3,1.4,4.3,4.3c0,1.4-1.2,2.6-2.6,2.6c-0.1,0-0.1,0-0.2,0c-1.1,0-2.2-0.5-3-1.3L83.2,38.5z"/>
						</g>
						<g id="g5156">
							<path id="path5158" class="st0" d="M89.6,39.5h0.9v-6.8h-0.9v-1.1h3v1.1h-0.9v6.8h0.9v1.1h-3V39.5z"/>
						</g>
						<g id="g5160">
							<path id="path5162" class="st0" d="M96.5,32.7h-1.8c-0.1,0-0.3,0.1-0.3,0.2c0,0,0,0,0,0.1v0.6h-1.1v-1.2
								c0-0.6,0.2-0.8,0.8-0.8h6.2c0.6,0,0.8,0.2,0.8,0.8v1.2h-1.1V33c0-0.1-0.1-0.3-0.2-0.3c0,0,0,0-0.1,0h-1.8v7.8h-1.3V32.7z"/>
						</g>
						<g id="g5164">
							<path id="path5166" class="st0" d="M104.6,36.7l-2.3-3.7c-0.1-0.2-0.3-0.3-0.6-0.3h-0.2v-1h0.6c0.5-0.1,1,0.2,1.2,0.7
								l1.4,2.2c0.3,0.5,0.5,1,0.5,1l0,0c0,0,0.2-0.5,0.5-1l1.3-2.2c0.2-0.5,0.7-0.8,1.2-0.7h0.6v1.1h-0.2c-0.2,0-0.5,0.1-0.6,0.3
								l-2.2,3.6v3.9h-1.3L104.6,36.7z"/>
						</g>
					</g>
				</g>
			</g>
		</g>
		<rect x="118.2" y="3.2" class="st2" width="70" height="23"/>
		<path class="st0" d="M124.3,9.4c0-0.2-0.1-0.4-0.3-0.4c0,0-0.1,0-0.1,0h-0.8V7h2.3c0.9,0,1.2,0.4,1.2,1.2v9.2
			c0,0.2,0.1,0.4,0.3,0.4c0,0,0.1,0,0.1,0h2.8c0.2,0,0.4-0.1,0.4-0.3c0,0,0-0.1,0-0.1v-0.8h2.1v2c0,0.9-0.4,1.2-1.2,1.2h-5.7
			c-0.9,0-1.2-0.4-1.2-1.2L124.3,9.4z"/>
		<path class="st0" d="M134.2,12.9c0-0.2-0.1-0.4-0.3-0.4c0,0-0.1,0-0.1,0h-0.7v-1.9h2.2c0.9,0,1.2,0.4,1.2,1.2v5.7
			c0,0.2,0.1,0.4,0.3,0.4c0,0,0,0,0.1,0h0.7v1.9h-2.2c-0.9,0-1.2-0.4-1.2-1.2V12.9z M134.3,6.9h2v2.2h-2V6.9z"/>
		<path class="st0" d="M139.5,9.3c0-0.2-0.1-0.4-0.3-0.4c0,0-0.1,0-0.1,0h-0.7v-2h2.2c0.9,0,1.2,0.4,1.2,1.2v2.7c0,0.3,0,0.5,0,0.8
			l0,0c0.7-0.9,1.7-1.3,2.8-1.3c2.5,0,4.1,2,4.1,4.8s-1.8,4.9-4.2,4.9c-1.1,0-2.1-0.4-2.8-1.3l0,0c0,0.2,0,0.4,0,0.6v0.5h-2.2V9.3z
			 M144,18.1c1.2,0,2.3-1,2.3-2.9s-0.9-2.9-2.3-2.9c-1.2,0-2.3,0.9-2.3,2.9C141.7,16.7,142.5,18.1,144,18.1z"/>
		<path class="st0" d="M150.7,12.9c0-0.2-0.1-0.4-0.3-0.4c0,0-0.1,0-0.1,0h-0.7v-1.9h2.1c0.8,0,1.2,0.3,1.2,1.1v0.6
			c0,0.2,0,0.4,0,0.6l0,0c0.4-1.3,1.5-2.3,2.9-2.4c0.1,0,0.3,0,0.4,0v2.3c-0.2,0-0.4,0-0.6,0c-1.2,0-2.2,0.8-2.5,1.9
			c-0.1,0.5-0.2,1-0.2,1.5v3.7h-2.3V12.9z"/>
		<path class="st0" d="M162.2,14h0.3v-0.1c0-1.3-0.5-1.8-1.7-1.8c-0.4,0-1.2,0.1-1.2,0.6v0.5h-2.1v-1c0-1.7,2.4-1.9,3.4-1.9
			c3.1,0,4,1.6,4,3.7v3.4c0,0.2,0.1,0.4,0.3,0.4c0,0,0.1,0,0.1,0h0.8v1.9h-2.1c-0.9,0-1.2-0.5-1.2-1c0-0.1,0-0.3,0-0.4l0,0
			c-0.5,1.1-1.7,1.7-2.9,1.6c-1.6,0.1-3-1.1-3.1-2.7c0-0.1,0-0.1,0-0.2C156.8,14.2,160.7,14,162.2,14z M160.5,18.2
			c1.2-0.1,2.1-1.2,2.1-2.4v-0.2h-0.4c-1.2,0-3.1,0.2-3.1,1.4c0,0.7,0.6,1.2,1.2,1.2C160.4,18.2,160.4,18.2,160.5,18.2z"/>
		<path class="st0" d="M167.8,12.9c0-0.2-0.1-0.4-0.3-0.4c0,0-0.1,0-0.1,0h-0.7v-1.9h2.1c0.8,0,1.2,0.3,1.2,1.1v0.6
			c0,0.2,0,0.4,0,0.6l0,0c0.4-1.3,1.5-2.3,2.9-2.4c0.1,0,0.3,0,0.4,0v2.3c-0.2,0-0.4,0-0.6,0c-1.2,0-2.2,0.8-2.5,1.9
			c-0.1,0.5-0.2,1-0.2,1.5v3.7h-2.3V12.9z"/>
		<path class="st0" d="M176.2,21.6c0.7,0,1.3-0.5,1.5-1.2l0.3-0.7l-3-6.9c-0.1-0.2-0.3-0.4-0.5-0.3h-0.3v-1.9h1.5
			c0.6-0.1,1.1,0.3,1.2,0.9l1.8,4.6c0.1,0.4,0.3,0.8,0.3,1.2l0,0c0.1-0.4,0.2-0.8,0.3-1.2l1.6-4.6c0.1-0.6,0.7-0.9,1.2-0.9h1.6v1.9
			h-0.3c-0.2,0-0.5,0.1-0.5,0.3l-3.3,8.3c-0.5,1.4-1.8,2.4-3.3,2.4c-0.9,0-1.7-0.3-2.3-0.9l0.9-1.6
			C175.2,21.4,175.7,21.6,176.2,21.6z"/>
	</g>
</g>
</svg>
