<svg xmlns="http://www.w3.org/2000/svg" viewBox="0 0 190.16 43.63"><defs><style>.cls-1{fill:#fff;}.cls-2{fill:#e22a20;}.cls-3{fill:#e41e2a;}</style></defs><g id="Libary_logo" data-name="Libary logo"><g id="white"><g id="layer1"><g id="g5781"><g id="g5108"><g id="g5110"><path id="path5106" class="cls-1" d="M90.26,4.4h2.95V3.32H83V4.4h3V25H83v1.08H93.21V25H90.26Z"/><g id="g5116"><path id="path5118" class="cls-1" d="M108.93,26.11V25h-3.14V4.17c4.8-.24,5.62.79,6.24,5.15h1l-.37-6H94.46l-.37,6h1.08c.62-4.36,1.43-5.39,6.24-5.15V25H98.27v1.07h10.66"/></g><g id="g5120"><path id="path5122" class="cls-1" d="M81,4.39V3.32H72.59L67.65,18.9,62.88,3.32H54.5V4.39h3V25H54.26a2.67,2.67,0,0,1-3-3c0-5.56-1.2-7.58-6.53-8.41v-.07C47.93,13.25,52,12.35,52,8.5c0-4.74-4.43-5.18-8.16-5.18h-11V4.39h2.94V25H32.84v1.08H43.09V25H40.15V14.15a8.13,8.13,0,0,1,5,1.24c.89.75,1.37,3.09,1.37,5.91,0,3.49,1.8,4.81,5.25,4.81h9.88V25H58.75V4.75h.07l6.79,21.36h1.15L73.59,4.75h.1V25H70.76v1.07H81V25H78.06V4.39Zm-40.85,8.7V4.39h3c3,0,4.16.77,4.16,4.6,0,3-1.26,4.1-4.33,4.1h-2.8"/></g><g id="g5124"><path id="path5126" class="cls-2" d="M14.7,2H11.3V4.73H5.63v5.76H1.37V19H5.63v5.77H11.3v2.75h3c7,0,13.19-5.66,13.19-12.73A12.85,12.85,0,0,0,14.7,2"/></g><g id="g5128"><path id="path5130" class="cls-1" d="M35.78,33a.25.25,0,0,0-.27-.28H35V31.64h1.28c.57,0,.81.24.81.81v4.94a2.14,2.14,0,1,0,4.28,0V32.45c0-.57.25-.81.82-.81h1.27v1.08h-.55a.25.25,0,0,0-.28.28v4.44a3.16,3.16,0,0,1-3.39,3.28,3.18,3.18,0,0,1-3.42-3.28Z"/></g><g id="g5132"><path id="path5134" class="cls-1" d="M44.27,39.48h.55a.25.25,0,0,0,.27-.28V31.64h1.16l4,5.65c.33.48.75,1.22.75,1.22h0a12,12,0,0,1-.09-1.22V32.45c0-.57.24-.81.83-.81H53v1.08h-.54a.25.25,0,0,0-.28.28v7.57H51l-4-5.65c-.33-.49-.73-1.22-.73-1.22h0s.08.72.08,1.22v4.84c0,.57-.24.81-.81.81H44.27Z"/></g><g id="g5136"><path id="path5138" class="cls-1" d="M54.36,39.48h.88V32.72h-.88V31.64h3v1.08h-.87v6.76h.87v1.09h-3Z"/></g><g id="g5140"><path id="path5142" class="cls-1" d="M58.69,33a.36.36,0,0,0-.41-.28H58.1V31.64h.71c.63,0,.85.14,1,.73l2,5.51c.16.48.34,1.22.34,1.22h0a10.92,10.92,0,0,1,.34-1.22l2-5.51c.21-.59.42-.73,1.05-.73h.71v1.08h-.18c-.23,0-.34.05-.42.28l-2.81,7.57H61.5Z"/></g><g id="g5144"><path id="path5146" class="cls-1" d="M67.81,32.72H67V31.64h5.26c.57,0,.81.24.81.81v1.12H71.89V33a.25.25,0,0,0-.28-.28H69.07v2.8H72.2v1.09H69.07V39.2a.25.25,0,0,0,.28.28H72a.26.26,0,0,0,.28-.28v-.57H73.4v1.13c0,.57-.24.81-.81.81h-4c-.57,0-.81-.24-.81-.81Z"/></g><g id="g5148"><path id="path5150" class="cls-1" d="M78.09,35.93a1.45,1.45,0,0,0,1.53-1.62,1.43,1.43,0,0,0-1.51-1.59H76.44v3.21Zm-2.92-3.21h-.82V31.64h3.9a2.48,2.48,0,0,1,2.67,2.62,2.29,2.29,0,0,1-1.61,2.36v0a.94.94,0,0,1,.38.4l1.08,2.14c.13.27.33.29.63.29h.17v1.09H81c-.7,0-1-.09-1.24-.67l-1.22-2.4c-.23-.42-.39-.49-.89-.49H76.44v3.56H75.17Z"/></g><g id="g5152"><path id="path5154" class="cls-1" d="M83.19,38.5a3.25,3.25,0,0,0,2.24,1.07A1.39,1.39,0,0,0,87,38.24c0-1.87-4.32-1.58-4.32-4.36a2.58,2.58,0,0,1,2.86-2.4c1,0,2.55.44,2.55,1.65v.73H86.88v-.41c0-.47-.67-.81-1.38-.81-1,0-1.57.53-1.57,1.2,0,1.81,4.31,1.4,4.31,4.34a2.6,2.6,0,0,1-2.84,2.54,4,4,0,0,1-3-1.33Z"/></g><g id="g5156"><path id="path5158" class="cls-1" d="M89.56,39.48h.88V32.72h-.88V31.64h3v1.08h-.87v6.76h.87v1.09h-3Z"/></g><g id="g5160"><path id="path5162" class="cls-1" d="M96.54,32.72h-1.8a.25.25,0,0,0-.28.28v.57H93.34V32.4c0-.57.19-.76.75-.76h6.16c.56,0,.76.19.76.76v1.17H99.88V33a.25.25,0,0,0-.28-.28H97.8v7.85H96.54Z"/></g><g id="g5164"><path id="path5166" class="cls-1" d="M104.61,36.67,102.35,33a.53.53,0,0,0-.55-.32h-.25V31.64h.58a1.1,1.1,0,0,1,1.2.68l1.36,2.25c.29.5.54,1,.54,1h0s.24-.5.54-1l1.35-2.25a1.1,1.1,0,0,1,1.2-.68h.58v1.08h-.24a.54.54,0,0,0-.56.32l-2.25,3.63v3.9h-1.27Z"/></g></g></g></g></g><rect class="cls-3" x="118.17" y="3.21" width="70" height="23"/><path class="cls-1" d="M124.34,9.35a.36.36,0,0,0-.4-.4h-.78v-2h2.32c.87,0,1.23.38,1.23,1.23v9.21a.36.36,0,0,0,.4.4h2.8a.36.36,0,0,0,.4-.4V16.6h2.15v2c0,.87-.36,1.23-1.23,1.23h-5.66c-.87,0-1.23-.36-1.23-1.23Z"/><path class="cls-1" d="M134.22,12.91a.35.35,0,0,0-.4-.4h-.72V10.56h2.19c.85,0,1.21.38,1.21,1.23v5.67a.36.36,0,0,0,.4.39h.72v1.94h-2.19c-.85,0-1.21-.36-1.21-1.23Zm.11-6h2V9.06h-2Z"/><path class="cls-1" d="M139.49,9.29a.35.35,0,0,0-.4-.39h-.72v-2h2.18c.86,0,1.24.38,1.24,1.23v2.68a7.19,7.19,0,0,1,0,.78h0a3.26,3.26,0,0,1,2.76-1.29c2.5,0,4.09,2,4.09,4.83S146.85,20,144.41,20a3.28,3.28,0,0,1-2.75-1.31h0a4.51,4.51,0,0,1,0,.62v.47h-2.17ZM144,18.07c1.25,0,2.32-1,2.32-2.86s-.94-2.89-2.3-2.89c-1.19,0-2.32.86-2.32,2.91C141.71,16.66,142.47,18.07,144,18.07Z"/><path class="cls-1" d="M150.74,12.91a.35.35,0,0,0-.39-.4h-.73V10.56h2.1c.82,0,1.23.34,1.23,1.12v.55a4.87,4.87,0,0,1,0,.57h0a3.18,3.18,0,0,1,2.93-2.37,2.74,2.74,0,0,1,.42,0v2.26a4.79,4.79,0,0,0-.56,0,2.6,2.6,0,0,0-2.52,1.93,5.92,5.92,0,0,0-.19,1.5v3.66h-2.29Z"/><path class="cls-1" d="M162.24,14h.29v-.07c0-1.32-.53-1.81-1.7-1.81-.42,0-1.23.11-1.23.61v.49h-2.14v-1c0-1.72,2.43-1.9,3.38-1.9,3.08,0,4,1.61,4,3.68v3.44a.35.35,0,0,0,.39.39H166v1.94h-2.07c-.85,0-1.17-.47-1.17-1a3.57,3.57,0,0,1,0-.4h0A3,3,0,0,1,159.9,20a2.92,2.92,0,0,1-3.15-2.88C156.75,14.23,160.74,14,162.24,14Zm-1.78,4.22a2.38,2.38,0,0,0,2.1-2.43v-.22h-.39c-1.2,0-3.1.17-3.1,1.45A1.23,1.23,0,0,0,160.46,18.22Z"/><path class="cls-1" d="M167.79,12.91a.35.35,0,0,0-.39-.4h-.73V10.56h2.1c.82,0,1.23.34,1.23,1.12v.55a4.87,4.87,0,0,1,0,.57h0a3.18,3.18,0,0,1,2.93-2.37,2.74,2.74,0,0,1,.42,0v2.26a4.79,4.79,0,0,0-.56,0,2.6,2.6,0,0,0-2.52,1.93,5.92,5.92,0,0,0-.19,1.5v3.66h-2.29Z"/><path class="cls-1" d="M176.21,21.65a1.65,1.65,0,0,0,1.52-1.17l.31-.71L175,12.84a.44.44,0,0,0-.49-.33h-.27V10.56h1.52a1.12,1.12,0,0,1,1.21.87L178.74,16a8,8,0,0,1,.33,1.23h0a11.09,11.09,0,0,1,.3-1.23L181,11.43a1.15,1.15,0,0,1,1.23-.87h1.56v1.95h-.28a.46.46,0,0,0-.52.33l-3.31,8.34a3.49,3.49,0,0,1-3.33,2.41,3.43,3.43,0,0,1-2.34-.94l.89-1.63A2,2,0,0,0,176.21,21.65Z"/></g></g></svg>