<?xml version="1.0" encoding="utf-8"?>
<!-- Generator: Adobe Illustrator 25.4.1, SVG Export Plug-In . SVG Version: 6.00 Build 0)  -->
<svg version="1.1" id="Layer_1" xmlns="http://www.w3.org/2000/svg" xmlns:xlink="http://www.w3.org/1999/xlink" x="0px" y="0px"
	 viewBox="0 0 189 41.1" style="enable-background:new 0 0 189 41.1;" xml:space="preserve">
<style type="text/css">
	.st0{clip-path:url(#SVGID_00000042000743103632092350000006015615287242400176_);}
	.st1{fill:#E22A20;}
	.st2{fill:#E41E2A;}
	.st3{fill:#FFFFFF;}
</style>
<g id="Libary_logo">
	<g id="layer1">
		<g id="g5781">
			<g id="g5104">
				<path id="path5106" d="M90.1,3.3h3V2.3H82.8v1.1h3V24h-3v1.1H93V24h-3L90.1,3.3z"/>
			</g>
			<g id="g5108">
				<g>
					<defs>
						<polygon id="SVGID_1_" points="-10.2,50.9 123.9,50.9 123.9,-9.1 -10.2,-9.1 -10.2,50.9 						"/>
					</defs>
					<clipPath id="SVGID_00000029029813452262114830000011988772001354471348_">
						<use xlink:href="#SVGID_1_"  style="overflow:visible;"/>
					</clipPath>
					<g style="clip-path:url(#SVGID_00000029029813452262114830000011988772001354471348_);">
						<g id="g5110">
							<g id="g5116">
								<path id="path5118" d="M108.8,25v-1h-3.1V3.1c4.8-0.2,5.6,0.8,6.2,5.2h1l-0.4-6H94.3l-0.4,6H95c0.6-4.4,1.4-5.4,6.2-5.2V24
									h-3.2v1.1L108.8,25"/>
							</g>
							<g id="g5120">
								<path id="path5122" d="M80.8,3.3V2.3h-8.4l-4.9,15.6L62.7,2.3h-8.4v1.1h3V24h-3.2c-1.5,0.2-2.8-0.9-3-2.3c0-0.2,0-0.4,0-0.7
									c0-5.6-1.2-7.6-6.5-8.4v-0.1c3.2-0.3,7.2-1.2,7.2-5.1c0-4.7-4.4-5.2-8.2-5.2h-11v1.1h3V24h-2.9v1.1h10.3V24H40V13.1
									c1.8-0.1,3.5,0.3,5,1.2c0.9,0.8,1.4,3.1,1.4,5.9c0,3.5,1.8,4.8,5.2,4.8h9.9v-1h-2.9V3.7h0.1l6.8,21.4h1.2l6.8-21.4h0.1V24
									h-2.9v1.1h10.2V24h-2.9V3.3H80.8z M40,12V3.3h3c3,0,4.2,0.8,4.2,4.6c0,3.1-1.3,4.1-4.4,4.1H40"/>
							</g>
							<g id="g5124">
								<path id="path5126" class="st1" d="M14.5,0.9h-3.4v2.8H5.5v5.8H1.2v8.5h4.3v5.8h5.7v2.8h3c7,0,13.2-5.7,13.2-12.7
									C27.3,6.6,21.6,0.9,14.5,0.9"/>
							</g>
							<g id="g5128">
								<path id="path5130" d="M35.6,32c0-0.1-0.1-0.3-0.2-0.3c0,0,0,0-0.1,0h-0.5v-1.1h1.3c0.6,0,0.8,0.2,0.8,0.8v5
									c0,1.2,1,2.1,2.1,2.1s2.1-1,2.1-2.1c0,0,0,0,0,0v-5c0-0.6,0.2-0.8,0.8-0.8h1.3v1.1h-0.5c-0.1,0-0.3,0.1-0.3,0.2
									c0,0,0,0,0,0.1v4.4c0.1,1.7-1.3,3.2-3,3.3c-0.1,0-0.3,0-0.4,0c-1.7,0.1-3.3-1.2-3.4-2.9c0-0.1,0-0.2,0-0.4L35.6,32z"/>
							</g>
							<g id="g5132">
								<path id="path5134" d="M44.1,38.4h0.5c0.1,0,0.3-0.1,0.3-0.2c0,0,0,0,0-0.1v-7.6h1.2l4,5.7c0.3,0.5,0.8,1.2,0.8,1.2l0,0
									c-0.1-0.4-0.1-0.8-0.1-1.2v-4.8c0-0.6,0.2-0.8,0.8-0.8h1.3v1.1h-0.5c-0.1,0-0.3,0.1-0.3,0.2c0,0,0,0.1,0,0.1v7.6h-1.1
									l-4-5.7c-0.3-0.5-0.7-1.2-0.7-1.2l0,0c0,0,0.1,0.7,0.1,1.2v4.8c0,0.6-0.2,0.8-0.8,0.8h-1.3V38.4z"/>
							</g>
							<g id="g5136">
								<path id="path5138" d="M54.2,38.4h0.9v-6.8h-0.9v-1.1h3v1.1h-0.9v6.8h0.9v1.1h-3V38.4z"/>
							</g>
							<g id="g5140">
								<path id="path5142" d="M58.5,32c0-0.2-0.2-0.3-0.4-0.3h-0.2v-1.1h0.7c0.6,0,0.8,0.1,1,0.7l2,5.5C61.8,37.3,62,38,62,38l0,0
									c0.1-0.4,0.2-0.8,0.3-1.2l2-5.5c0.2-0.6,0.4-0.7,1.1-0.7h0.7v1.1h-0.2c-0.2,0-0.3,0-0.4,0.3l-2.8,7.6h-1.3L58.5,32z"/>
							</g>
							<g id="g5144">
								<path id="path5146" d="M67.6,31.7h-0.8v-1.1h5.2c0.6,0,0.8,0.2,0.8,0.8v1.1h-1.2V32c0-0.1-0.1-0.3-0.2-0.3c0,0,0,0-0.1,0
									h-2.6v2.8H72v1.1h-3.1v2.6c0,0.1,0.1,0.3,0.2,0.3c0,0,0,0,0.1,0h2.6c0.1,0,0.3-0.1,0.3-0.2c0,0,0,0,0-0.1v-0.6h1.2v1.1
									c0,0.6-0.2,0.8-0.8,0.8h-4c-0.6,0-0.8-0.2-0.8-0.8L67.6,31.7z"/>
							</g>
							<g id="g5148">
								<path id="path5150" d="M77.9,34.9c0.8,0,1.5-0.6,1.5-1.4c0-0.1,0-0.2,0-0.3c0.1-0.8-0.5-1.5-1.2-1.6c-0.1,0-0.2,0-0.3,0
									h-1.7v3.2H77.9z M75,31.7h-0.8v-1.1h3.9c1.4-0.1,2.6,0.9,2.7,2.3c0,0.1,0,0.2,0,0.3c0.1,1.1-0.6,2.1-1.6,2.4l0,0
									c0.2,0.1,0.3,0.2,0.4,0.4l1.1,2.1c0.1,0.3,0.3,0.3,0.6,0.3h0.2v1.1h-0.6c-0.7,0-1-0.1-1.2-0.7l-1.2-2.4
									c-0.2-0.4-0.4-0.5-0.9-0.5h-1.2v3.6H75V31.7z"/>
							</g>
							<g id="g5152">
								<path id="path5154" d="M83,37.4c0.6,0.6,1.4,1,2.2,1.1c0.8,0.1,1.4-0.5,1.5-1.2c0,0,0-0.1,0-0.1c0-1.9-4.3-1.6-4.3-4.4
									c0.1-1.4,1.3-2.5,2.7-2.4c0,0,0.1,0,0.1,0c1,0,2.6,0.4,2.6,1.7v0.7h-1.2v-0.4c0-0.5-0.7-0.8-1.4-0.8c-1,0-1.6,0.5-1.6,1.2
									c0,1.8,4.3,1.4,4.3,4.3c0,1.4-1.2,2.6-2.7,2.5c-0.1,0-0.1,0-0.2,0c-1.1,0-2.2-0.5-3-1.3L83,37.4z"/>
							</g>
							<g id="g5156">
								<path id="path5158" d="M89.4,38.4h0.9v-6.8h-0.9v-1.1h3v1.1h-0.9v6.8h0.9v1.1h-3V38.4z"/>
							</g>
							<g id="g5160">
								<path id="path5162" d="M96.4,31.7h-1.8c-0.1,0-0.3,0.1-0.3,0.2c0,0,0,0,0,0.1v0.6h-1.1v-1.2c0-0.6,0.2-0.8,0.8-0.8h6.2
									c0.6,0,0.8,0.2,0.8,0.8v1.2h-1.1V32c0-0.1-0.1-0.3-0.2-0.3c0,0,0,0-0.1,0h-1.8v7.9h-1.3V31.7z"/>
							</g>
							<g id="g5164">
								<path id="path5166" d="M104.4,35.6l-2.3-3.6c-0.1-0.2-0.3-0.4-0.6-0.3h-0.2v-1.1h0.6c0.5-0.1,1,0.2,1.2,0.7l1.3,2.2
									c0.3,0.5,0.6,1,0.6,1l0,0c0,0,0.2-0.5,0.5-1l1.3-2.2c0.2-0.5,0.7-0.8,1.2-0.7h0.6v1.1h-0.2c-0.2,0-0.5,0.1-0.5,0.3l-2.2,3.6
									v3.9h-1.3L104.4,35.6z"/>
							</g>
						</g>
					</g>
				</g>
			</g>
		</g>
	</g>
	<rect x="118" y="2.2" class="st2" width="70" height="23"/>
	<path class="st3" d="M124.2,8.3c0-0.2-0.1-0.4-0.3-0.4c0,0-0.1,0-0.1,0H123v-2h2.3c0.9,0,1.2,0.4,1.2,1.2v9.2
		c0,0.2,0.1,0.4,0.3,0.4c0,0,0,0,0.1,0h2.8c0.2,0,0.4-0.1,0.4-0.3c0,0,0-0.1,0-0.1v-0.8h2.1v2c0,0.9-0.4,1.2-1.2,1.2h-5.7
		c-0.9,0-1.2-0.4-1.2-1.2V8.3z"/>
	<path class="st3" d="M134.1,11.9c0-0.2-0.1-0.4-0.3-0.4c0,0-0.1,0-0.1,0h-0.7v-2h2.2c0.9,0,1.2,0.4,1.2,1.2v5.7
		c0,0.2,0.1,0.4,0.3,0.4c0,0,0.1,0,0.1,0h0.7v1.9h-2.2c-0.9,0-1.2-0.4-1.2-1.2V11.9z M134.2,5.9h2V8h-2V5.9z"/>
	<path class="st3" d="M139.3,8.2c0-0.2-0.1-0.4-0.3-0.4c0,0-0.1,0-0.1,0h-0.7V5.9h2.2c0.9,0,1.2,0.4,1.2,1.2v2.7c0,0.3,0,0.5,0,0.8
		l0,0c0.7-0.9,1.7-1.3,2.8-1.3c2.5,0,4.1,2,4.1,4.8s-1.8,4.9-4.2,4.9c-1.1,0-2.1-0.4-2.8-1.3l0,0c0,0.2,0,0.4,0,0.6v0.5h-2.2V8.2z
		 M143.8,17c1.2,0,2.3-1,2.3-2.9s-0.9-2.9-2.3-2.9c-1.2,0-2.3,0.9-2.3,2.9C141.5,15.6,142.3,17,143.8,17z"/>
	<path class="st3" d="M150.6,11.9c0-0.2-0.1-0.4-0.3-0.4c0,0-0.1,0-0.1,0h-0.7v-2h2.1c0.8,0,1.2,0.3,1.2,1.1v0.5c0,0.2,0,0.4,0,0.6
		l0,0c0.4-1.3,1.5-2.3,2.9-2.4c0.1,0,0.3,0,0.4,0v2.3c-0.2,0-0.4,0-0.6,0c-1.2,0-2.2,0.8-2.5,1.9c-0.1,0.5-0.2,1-0.2,1.5v3.7h-2.3
		L150.6,11.9z"/>
	<path class="st3" d="M162.1,13h0.3v-0.1c0-1.3-0.5-1.8-1.7-1.8c-0.4,0-1.2,0.1-1.2,0.6v0.5h-2.1v-1c0-1.7,2.4-1.9,3.4-1.9
		c3.1,0,4,1.6,4,3.7v3.4c0,0.2,0.1,0.4,0.3,0.4c0,0,0.1,0,0.1,0h0.7v1.9h-2.1c-0.9,0-1.2-0.5-1.2-1c0-0.1,0-0.3,0-0.4l0,0
		c-0.5,1.1-1.6,1.7-2.8,1.6c-1.6,0.1-3-1.1-3.1-2.7c0-0.1,0-0.1,0-0.2C156.6,13.2,160.6,13,162.1,13z M160.3,17.2
		c1.2-0.1,2.1-1.2,2.1-2.4v-0.2H162c-1.2,0-3.1,0.2-3.1,1.4C158.9,16.7,159.5,17.2,160.3,17.2C160.2,17.2,160.3,17.2,160.3,17.2
		L160.3,17.2z"/>
	<path class="st3" d="M167.6,11.9c0-0.2-0.1-0.4-0.3-0.4c0,0-0.1,0-0.1,0h-0.7v-2h2.1c0.8,0,1.2,0.3,1.2,1.1v0.5c0,0.2,0,0.4,0,0.6
		l0,0c0.4-1.3,1.5-2.3,2.9-2.4c0.1,0,0.3,0,0.4,0v2.3c-0.2,0-0.4,0-0.6,0c-1.2,0-2.2,0.8-2.5,1.9c-0.1,0.5-0.2,1-0.2,1.5v3.7h-2.3
		L167.6,11.9z"/>
	<path class="st3" d="M176,20.6c0.7,0,1.3-0.5,1.5-1.2l0.3-0.7l-3.1-6.9c0-0.2-0.3-0.4-0.5-0.3H174v-2h1.5c0.6-0.1,1.1,0.3,1.2,0.9
		l1.8,4.7c0.1,0.4,0.2,0.8,0.3,1.2l0,0c0.1-0.4,0.2-0.8,0.3-1.2l1.6-4.6c0.1-0.6,0.7-0.9,1.2-0.9h1.6v2h-0.3c-0.2,0-0.5,0.1-0.5,0.3
		l-3.3,8.3c-0.5,1.4-1.8,2.4-3.3,2.4c-0.9,0-1.7-0.3-2.3-0.9l0.9-1.6C175,20.4,175.5,20.6,176,20.6z"/>
</g>
</svg>
